<svg width="266" height="32" viewBox="0 0 266 32" fill="none" xmlns="http://www.w3.org/2000/svg">
<path fill-rule="evenodd" clip-rule="evenodd" d="M258.152 4.04648L254.398 4.39248V23.4223H258.152V17.2212L262.012 23.423H266L261.959 17.009L265.844 10.7543H261.855L258.153 16.7955V4.04648H258.152ZM240.634 17.4072C240.634 21.0533 242.667 23.6887 246.813 23.6887C250.958 23.6887 252.991 21.0539 252.991 17.4072V16.77C252.991 13.124 250.958 10.4885 246.813 10.4885C242.667 10.4885 240.634 13.1233 240.634 16.77V17.4072ZM249.237 17.6729C249.237 19.3494 248.559 20.6811 246.813 20.6811C245.066 20.6811 244.388 19.35 244.388 17.6729V16.5037C244.388 14.8272 245.066 13.4955 246.813 13.4955C248.559 13.4955 249.237 14.8266 249.237 16.5037V17.6742V17.6729ZM227.026 17.4072C227.026 21.0533 229.06 23.6887 233.204 23.6887C237.349 23.6887 239.383 21.0539 239.383 17.4072V16.77C239.383 13.124 237.349 10.4885 233.204 10.4885C229.059 10.4885 227.026 13.1233 227.026 16.77V17.4072ZM235.629 17.6729C235.629 19.3494 234.95 20.6811 233.204 20.6811C231.458 20.6811 230.78 19.35 230.78 17.6729V16.5037C230.78 14.8272 231.457 13.4955 233.204 13.4955C234.951 13.4955 235.629 14.8266 235.629 16.5037V17.6742V17.6729ZM225.775 16.6885C225.775 13.1488 224.106 10.4866 220.665 10.4866C218.916 10.4866 217.719 11.3914 217.172 12.5097V4.04648L213.418 4.39248V23.4223H216.963V21.5057C217.485 22.7297 218.788 23.6881 220.665 23.6881C224.106 23.6881 225.775 21.0265 225.775 17.4862V16.6891V16.6885ZM222.021 17.5665C222.021 19.3507 221.343 20.6805 219.544 20.6805C218.006 20.6805 217.17 19.5622 217.17 17.7526V16.4221C217.17 14.6125 218.004 13.4948 219.544 13.4948C221.343 13.4948 222.021 14.8253 222.021 16.6082V17.564V17.5665ZM200.2 17.5665C200.2 21.2928 201.972 23.7148 206.718 23.7148C208.517 23.7148 210.55 23.3153 211.541 22.7832L210.863 20.1484C209.768 20.6276 208.282 20.9201 206.874 20.9201C204.789 20.9201 204.032 20.1484 203.954 18.4178H211.854V16.396C211.854 12.8825 210.159 10.4873 206.3 10.4873C202.207 10.4873 200.199 12.8557 200.199 16.4489V17.5672L200.2 17.5665ZM203.954 15.9168C203.954 14.2136 204.606 13.1221 206.3 13.1221C207.943 13.1221 208.49 14.2136 208.49 15.5969V15.9155H203.954V15.9168ZM196.108 10.4873C191.701 10.4873 189.695 12.9086 189.695 16.7955V17.3811C189.695 21.268 191.702 23.6893 196.108 23.6893C197.568 23.6893 198.95 23.3707 199.706 22.838L198.872 20.1229C198.089 20.5033 197.235 20.7034 196.368 20.7092C194.334 20.7092 193.449 19.5112 193.449 17.4595V16.7139C193.449 14.6647 194.335 13.4642 196.368 13.4642C197.235 13.4698 198.089 13.6698 198.872 14.0498L199.706 11.3354C198.95 10.8027 197.568 10.4834 196.108 10.4834V10.4873ZM176.034 17.4869C176.034 21.0271 177.677 23.6887 181.118 23.6887C182.992 23.6887 184.169 22.7329 184.69 21.5063V23.423H188.288V10.753H184.69V12.6964C184.142 11.4724 182.995 10.4873 181.118 10.4873C177.677 10.4873 176.034 13.1488 176.034 16.6891V17.4869ZM179.789 16.6356C179.789 14.7456 180.466 13.4948 182.213 13.4948C183.751 13.4948 184.533 14.6418 184.533 16.4495V17.7271C184.533 19.5367 183.751 20.6811 182.213 20.6811C180.463 20.6811 179.789 19.431 179.789 17.541V16.6362V16.6356ZM174.158 7.10694C172.984 7.10694 172.646 7.63964 172.646 8.81017V10.7536H175.773L175.461 13.8912H172.645V23.4223H168.89V13.8912H166.362V10.7536H168.89V8.86433C168.89 5.69746 170.14 4.02163 173.639 4.02163C174.369 4.01981 175.1 4.0645 175.825 4.15545V7.10949H174.156L174.158 7.10694ZM121.507 15.748C121.509 15.4119 121.581 15.0801 121.719 14.775C121.865 14.4445 122.072 14.1461 122.329 13.8963C122.618 13.6191 122.955 13.3989 123.323 13.247C123.757 13.0695 124.222 12.9828 124.689 12.9921C125.126 12.9834 125.56 13.0703 125.962 13.247C126.306 13.3993 126.617 13.62 126.876 13.8963C127.111 14.1511 127.295 14.4494 127.42 14.775C127.542 15.0844 127.605 15.4145 127.607 15.748H121.508H121.507ZM128.958 19.6438C128.852 19.7521 128.697 19.8919 128.494 20.063C128.254 20.2577 127.991 20.4212 127.712 20.5499C126.855 20.9496 125.922 21.1484 124.98 21.1316C124.56 21.1294 124.144 21.0562 123.747 20.915C123.342 20.777 122.965 20.5664 122.633 20.2931C122.308 20.0243 122.037 19.6928 121.838 19.3175C121.629 18.9271 121.524 18.4878 121.533 18.0431H130.806V17.5869C130.809 16.6936 130.704 15.8033 130.494 14.9362C130.296 14.1017 129.946 13.3127 129.462 12.6104C128.968 11.9109 128.319 11.3409 127.567 10.9473C126.78 10.5225 125.822 10.3101 124.693 10.3101C123.756 10.3101 122.902 10.4815 122.131 10.8243C121.382 11.1534 120.705 11.633 120.141 12.2345C119.578 12.8398 119.136 13.5521 118.841 14.3308C118.526 15.1639 118.369 16.0504 118.377 16.9433C118.377 17.9709 118.532 18.9085 118.841 19.7559C119.126 20.5683 119.577 21.3094 120.164 21.9297C120.752 22.55 121.463 23.0352 122.249 23.3529C123.062 23.6953 123.964 23.8665 124.954 23.8665C125.926 23.8665 126.761 23.7584 127.46 23.5421C128.158 23.3259 128.733 23.0825 129.184 22.8119C129.634 22.5413 129.979 22.2843 130.218 22.0409L130.655 21.5949L128.958 19.6476V19.6438ZM115.119 19.6979C114.759 20.1172 114.316 20.4536 113.819 20.685C113.287 20.9327 112.707 21.0574 112.122 21.0501C111.521 21.0501 111 20.9328 110.56 20.6983C110.132 20.4762 109.757 20.1626 109.46 19.7789C109.168 19.3999 108.947 18.9688 108.81 18.5077C108.669 18.0434 108.597 17.56 108.597 17.074C108.597 16.5701 108.669 16.069 108.81 15.5861C108.94 15.1218 109.161 14.6893 109.46 14.3149C109.762 13.9463 110.136 13.6468 110.56 13.4362C111.002 13.2111 111.522 13.0983 112.122 13.0979C112.74 13.0979 113.288 13.2151 113.766 13.4496C114.243 13.6836 114.667 14.015 115.012 14.4232L117.002 12.3676C116.401 11.7248 115.678 11.214 114.877 10.8664C114.044 10.4972 113.125 10.3125 112.12 10.312C111.129 10.312 110.223 10.4924 109.401 10.853C108.615 11.1878 107.903 11.6799 107.306 12.3001C106.71 12.9203 106.241 13.656 105.928 14.464C105.599 15.2939 105.432 16.1814 105.437 17.0765C105.437 18.0867 105.588 19.0064 105.888 19.8356C106.169 20.6331 106.612 21.3611 107.188 21.9721C107.778 22.5836 108.493 23.0546 109.283 23.3516C110.114 23.6762 111.06 23.8384 112.12 23.8384C113.181 23.8384 114.109 23.6492 114.905 23.2707C115.683 22.9051 116.385 22.391 116.973 21.7561L115.117 19.7005L115.119 19.6979ZM100.008 18.9409C100.007 19.2654 99.9189 19.5834 99.7534 19.8604C99.5832 20.1509 99.3626 20.4074 99.1024 20.6174C98.5345 21.0711 97.834 21.3178 97.1126 21.3183C96.37 21.3183 95.8077 21.165 95.4258 20.8583C95.0438 20.5516 94.8537 20.1278 94.8554 19.5871C94.8554 19.0641 95.0586 18.5998 95.4651 18.1942C95.8716 17.7885 96.5797 17.5856 97.5893 17.5856C97.7838 17.5856 98.0181 17.5901 98.2921 17.599C98.5658 17.6086 98.8288 17.622 99.0768 17.6398C99.3773 17.6583 99.686 17.6761 100.007 17.694V18.9384L100.008 18.9409ZM100.083 23.4166H102.983V14.9107C102.992 14.2738 102.868 13.6423 102.62 13.0577C102.379 12.4968 102.018 11.9978 101.564 11.5973C101.077 11.1757 100.515 10.8542 99.9084 10.6504C99.2115 10.4167 98.4815 10.3023 97.748 10.312C97.0955 10.305 96.4436 10.3546 95.7994 10.4605C95.2995 10.5451 94.8074 10.6717 94.3281 10.839C93.9419 10.9745 93.569 11.1464 93.2141 11.3526C92.8959 11.542 92.6131 11.7268 92.3657 11.9069L93.7977 14.0734C94.2446 13.7811 94.7148 13.5277 95.2034 13.3158C95.7336 13.0817 96.4416 12.9645 97.3275 12.964C98.1228 12.964 98.7707 13.1444 99.2642 13.505C99.7578 13.8657 100.009 14.3614 100.009 14.9929V15.2905C99.6872 15.2726 99.3436 15.2548 99.0256 15.2363C98.7426 15.2184 98.4496 15.2051 98.1509 15.1955C97.8523 15.186 97.5755 15.1821 97.3281 15.1821C96.5755 15.1739 95.8255 15.2741 95.1003 15.4797C94.4747 15.6544 93.889 15.9529 93.3766 16.3584C92.902 16.7425 92.5208 17.2331 92.2626 17.7921C91.9973 18.36 91.8647 19.0047 91.8647 19.726C91.8647 20.429 91.9928 21.042 92.2489 21.5649C92.4866 22.0645 92.8309 22.5034 93.2566 22.8495C93.668 23.181 94.1353 23.433 94.6355 23.5931C95.1285 23.7537 95.6429 23.8358 96.1605 23.8365C97.0089 23.8365 97.778 23.6743 98.4677 23.3497C99.1549 23.0254 99.6697 22.6488 100.006 22.234L100.085 23.4173L100.083 23.4166ZM86.0158 23.4166H89.152V5.37313H86.0158V23.4166ZM73.9943 16.5604C73.998 16.1751 74.0735 15.7941 74.2167 15.4376C74.3678 15.0474 74.5826 14.6861 74.8521 14.3691C75.1305 14.0413 75.4679 13.7709 75.846 13.5726C76.2476 13.3623 76.6935 13.2555 77.1449 13.2616C77.7455 13.2616 78.2492 13.3653 78.6562 13.5726C79.0482 13.7676 79.3892 14.0551 79.6508 14.4111C79.9145 14.7796 80.1037 15.1978 80.2074 15.6415C80.3253 16.1373 80.3833 16.646 80.3799 17.1562C80.3812 17.6532 80.3005 18.1469 80.1412 18.6166C79.9861 19.0772 79.747 19.5038 79.4365 19.8738C79.1245 20.2456 78.742 20.549 78.3119 20.7659C77.8421 20.9981 77.3252 21.114 76.8032 21.1042C75.5474 21.1042 74.5978 20.843 73.9949 20.3198V16.5604H73.9943ZM70.8986 28.829H73.9943V23.1866C74.2354 23.2771 74.4378 23.3625 74.6415 23.4415C74.8577 23.527 75.0786 23.5993 75.3031 23.6581C75.5646 23.7252 75.83 23.7748 76.0978 23.8066C76.4455 23.8456 76.7951 23.8637 77.1449 23.8607C78.0309 23.8602 78.9086 23.6858 79.7301 23.3472C80.5694 23.0048 81.3428 22.4007 82.0504 21.535C82.4936 20.9803 82.8517 20.3603 83.1125 19.696C83.3949 18.993 83.5363 18.1455 83.5367 17.1536C83.5386 16.3205 83.4224 15.4914 83.1919 14.6921C82.9755 13.9266 82.6252 13.2073 82.1579 12.569C81.6947 11.9439 81.1016 11.4312 80.4211 11.0678C79.7226 10.6893 78.8961 10.5 77.9414 10.5C77.4726 10.4948 77.005 10.5494 76.5495 10.6625C76.1657 10.759 75.7925 10.895 75.4356 11.0684C75.1333 11.2148 74.8486 11.3963 74.5872 11.6094C74.3745 11.783 74.1751 11.9728 73.9905 12.1771L73.9112 10.7434H70.8999V28.8296L70.8986 28.829ZM57.309 23.4128H60.444V18.9403L61.7935 17.5812L65.3971 23.416H69.1362L63.9389 15.4204L68.6058 10.7479H64.9197L60.444 15.235V5.37313H57.3078V23.4166L57.309 23.4128ZM47.1768 23.4128H50.313V16.5871C50.3049 16.1678 50.383 15.7514 50.5424 15.3647C50.7018 14.9781 50.9388 14.6298 51.2383 14.3423C51.5288 14.067 51.8716 13.8554 52.2454 13.7204C52.6363 13.5757 53.0491 13.5024 53.4649 13.5038C53.7266 13.5011 53.9882 13.5192 54.2471 13.5579C54.4703 13.5954 54.6884 13.6596 54.8968 13.7491L55.5335 10.7466C55.2971 10.6589 55.0529 10.5949 54.8044 10.5554C54.5363 10.5174 54.2659 10.4993 53.9953 10.5013C53.5333 10.4948 53.0729 10.5592 52.6296 10.6924C52.2643 10.8045 51.9128 10.9589 51.5819 11.1525C51.2993 11.3191 51.0368 11.5188 50.7997 11.7476C50.6062 11.9336 50.4246 12.1322 50.2562 12.3421L50.1768 10.7492H47.178V23.4166L47.1768 23.4128ZM36.4398 20.7366C36.0083 20.5026 35.6325 20.1747 35.339 19.7763C35.05 19.3857 34.8302 18.9467 34.6892 18.479C34.5496 18.0238 34.478 17.5497 34.4768 17.0727C34.4801 16.6003 34.5516 16.1309 34.6892 15.6798C34.8266 15.2104 35.0468 14.7705 35.339 14.3818C35.6356 13.9898 36.0109 13.667 36.4398 13.4349C36.8817 13.1915 37.4023 13.0698 38.0017 13.0698C38.601 13.0698 39.1216 13.1915 39.5636 13.4349C39.9921 13.6672 40.3672 13.99 40.6637 14.3818C40.9558 14.7706 41.176 15.2105 41.3135 15.6798C41.4509 16.1309 41.5225 16.6003 41.5259 17.0727C41.5245 17.5497 41.4529 18.0237 41.3135 18.479C41.1724 18.9468 40.9526 19.3861 40.6637 19.7769C40.3703 20.1752 39.9947 20.503 39.5636 20.7372C39.1216 20.9806 38.601 21.1023 38.0017 21.1023C37.4023 21.1023 36.8817 20.9806 36.4398 20.7372V20.7366ZM33.178 21.8453C33.7752 22.4781 34.4923 22.9804 35.2859 23.3217C36.108 23.6823 37.0141 23.8627 38.0042 23.8627C38.9942 23.8627 39.9003 23.6823 40.7225 23.3217C41.5158 22.9812 42.2329 22.4798 42.8304 21.8478C43.7231 20.8772 44.3257 19.6669 44.5676 18.3591C44.8095 17.0513 44.6806 15.7003 44.1961 14.4646C43.8816 13.6646 43.4178 12.9344 42.8304 12.3147C42.2298 11.69 41.5132 11.1935 40.7225 10.8543C39.9003 10.4936 38.9942 10.3133 38.0042 10.3133C37.0141 10.3133 36.108 10.4936 35.2859 10.8543C34.4999 11.189 33.7875 11.681 33.1909 12.3011C32.5944 12.9211 32.1256 13.6568 31.8122 14.4646C31.321 15.6993 31.1886 17.052 31.4307 18.3613C31.6729 19.6707 32.2795 20.8812 33.178 21.8485V21.8453ZM26.7324 22.5991C26.3207 23.1006 25.5697 23.8786 24.3839 23.8786C22.7096 23.8786 22.1692 22.6513 21.6613 21.3534L19.1479 15.0502L16.6414 21.3527C16.2116 22.4296 15.7524 23.8811 13.9175 23.8811C12.0826 23.8811 11.6171 22.4296 11.1898 21.3527L6.96523 10.7498H10.5263L13.9156 19.4794L16.4415 13.1182C16.8419 12.1115 17.3161 10.5911 19.1416 10.5911C20.9672 10.5911 21.4457 12.1121 21.8475 13.1182L24.5964 20.0051C25.6492 18.3807 26.2509 16.4959 26.3376 14.5507C26.4243 12.6056 25.9927 10.6728 25.0887 8.95778C24.1847 7.24274 22.8421 5.8095 21.2035 4.81033C19.5649 3.81117 17.6915 3.28341 15.7824 3.28312C14.1374 3.27185 12.5065 3.59264 10.9836 4.22701C9.4607 4.86139 8.07593 5.79681 6.90903 6.97939C5.74214 8.16197 4.81619 9.56835 4.18452 11.1175C3.55285 12.6666 3.22794 14.328 3.22852 16.0057C3.2291 17.6835 3.55514 19.3446 4.18788 20.8933C4.82061 22.442 5.74753 23.8477 6.91524 25.0294C8.08295 26.2112 9.46837 27.1456 10.9917 27.7789C12.515 28.4122 14.1461 28.7318 15.7911 28.7194C16.9303 28.719 18.0642 28.5608 19.1616 28.2491V31.6263C18.0545 31.8736 16.9245 31.9988 15.7911 31.9996C13.7227 32.0136 11.672 31.6102 9.7571 30.8127C7.84216 30.0151 6.10076 28.8393 4.63311 27.3527C3.16547 25.8661 2.00056 24.0982 1.20542 22.1506C0.410285 20.2031 0.000618525 18.1144 6.99861e-07 16.0048C-0.000617125 13.8951 0.407825 11.8062 1.20182 9.85819C1.99582 7.91017 3.15969 6.14153 4.62647 4.65406C6.09324 3.16658 7.83395 1.98964 9.74842 1.19095C11.6629 0.392271 13.7133 -0.0123797 15.7817 0.000288498C23.3962 0.000288498 29.5656 6.29515 29.5656 14.0594C29.5701 17.1464 28.5737 20.1483 26.7318 22.5978L26.7324 22.5991ZM149.846 10.7574H151.457L155.543 21.5554L159.365 10.7574H160.88L155.495 25.3346C155.31 25.7914 155.101 26.238 154.87 26.6727C154.707 26.9863 154.492 27.2686 154.234 27.5068C153.997 27.7141 153.718 27.8652 153.417 27.949C153.103 28.039 152.708 28.0841 152.229 28.0841C151.925 28.0679 151.688 28.0558 151.519 28.0478C151.368 28.0423 151.218 28.0133 151.075 27.9617V26.6599C151.251 26.6931 151.423 26.7237 151.592 26.746C151.763 26.7704 151.935 26.7826 152.108 26.7823C152.445 26.7823 152.721 26.7334 152.938 26.6357C153.15 26.54 153.341 26.4022 153.5 26.2305C153.669 26.0457 153.807 25.8344 153.909 25.6047C154.021 25.3592 154.141 25.0893 154.269 24.7949L154.799 23.372L149.846 10.7555V10.7574ZM137.923 5.89818H139.437V13.1622H139.485C139.637 12.7203 139.87 12.3121 140.172 11.9598C140.467 11.6174 140.811 11.3232 141.193 11.0875C141.581 10.8487 142.002 10.6711 142.442 10.5605C142.881 10.4465 143.333 10.388 143.786 10.3866C144.731 10.3866 145.553 10.5665 146.25 10.9263C146.931 11.2735 147.526 11.7727 147.992 12.3867C148.469 13.0241 148.82 13.749 149.026 14.522C149.475 16.2012 149.475 17.9722 149.026 19.6514C148.82 20.4244 148.469 21.1494 147.992 21.7867C147.529 22.3997 146.932 22.8951 146.25 23.2344C145.553 23.5865 144.731 23.7624 143.786 23.762C142.776 23.762 141.874 23.5247 141.081 23.0502C140.298 22.5889 139.692 21.8699 139.362 21.0112H139.315V23.416H137.921V5.89308L137.923 5.89818ZM147.851 17.0893C147.851 16.432 147.774 15.7771 147.623 15.1382C147.484 14.5228 147.24 13.9371 146.902 13.4075C146.577 12.9044 146.146 12.4811 145.64 12.1682C145.127 11.8492 144.51 11.6897 143.789 11.6897C142.987 11.6897 142.31 11.8492 141.757 12.1682C141.222 12.4719 140.762 12.8957 140.412 13.4075C140.059 13.9317 139.805 14.5187 139.663 15.1382C139.358 16.4204 139.358 17.7581 139.663 19.0403C139.804 19.6606 140.058 20.2482 140.412 20.7729C140.762 21.2853 141.223 21.7092 141.758 22.0122C142.312 22.3308 142.989 22.4903 143.79 22.4908C144.511 22.4908 145.128 22.3313 145.641 22.0122C146.147 21.6999 146.578 21.2765 146.903 20.7729C147.241 20.2436 147.485 19.6581 147.624 19.0429C147.775 18.4037 147.852 17.7486 147.852 17.0912L147.851 17.0893Z" fill="#4B4F56"/>
</svg>
